<mxfile host="app.diagrams.net" agent="Mozilla/5.0 (X11; Linux x86_64) AppleWebKit/537.36 (KHTML, like Gecko) Chrome/136.0.0.0 Safari/537.36" version="26.2.14">
  <diagram name="Página-1" id="5o9ZEbxD4f7RxgM0DLnX">
    <mxGraphModel dx="1426" dy="1960" grid="1" gridSize="10" guides="1" tooltips="1" connect="1" arrows="1" fold="1" page="1" pageScale="1" pageWidth="827" pageHeight="1169" math="0" shadow="0">
      <root>
        <mxCell id="0" />
        <mxCell id="1" parent="0" />
        <mxCell id="8wgbRAuEodP1ZeBWU0db-1" value="" style="rounded=0;whiteSpace=wrap;html=1;fillColor=#ffcc99;strokeColor=#36393d;" parent="1" vertex="1">
          <mxGeometry x="12" y="-1150" width="326" height="580" as="geometry" />
        </mxCell>
        <mxCell id="8wgbRAuEodP1ZeBWU0db-4" value="Recomendaciones &amp;gt;" style="text;html=1;align=center;verticalAlign=middle;whiteSpace=wrap;rounded=0;fontStyle=1" parent="1" vertex="1">
          <mxGeometry x="22" y="-1000" width="120" height="30" as="geometry" />
        </mxCell>
        <mxCell id="8wgbRAuEodP1ZeBWU0db-5" value="&lt;h1&gt;Bienvenido a MesaYa&lt;/h1&gt;" style="text;html=1;align=left;verticalAlign=middle;whiteSpace=wrap;rounded=0;" parent="1" vertex="1">
          <mxGeometry x="22" y="-1130" width="156" height="60" as="geometry" />
        </mxCell>
        <mxCell id="8wgbRAuEodP1ZeBWU0db-6" value="&lt;h3&gt;Inicia sesión o regístrate para poder disfrutar de todas las funciones que te ofrecemos de manera fácil y sencilla.&lt;/h3&gt;" style="text;html=1;align=left;verticalAlign=middle;whiteSpace=wrap;rounded=0;" parent="1" vertex="1">
          <mxGeometry x="22" y="-1060" width="306" height="50" as="geometry" />
        </mxCell>
        <mxCell id="8wgbRAuEodP1ZeBWU0db-8" value="" style="rounded=1;whiteSpace=wrap;html=1;fillColor=#ffcc99;strokeColor=#36393d;" parent="1" vertex="1">
          <mxGeometry x="12" y="-630" width="326" height="60" as="geometry" />
        </mxCell>
        <mxCell id="8wgbRAuEodP1ZeBWU0db-11" value="" style="shape=offPageConnector;whiteSpace=wrap;html=1;rotation=-180;" parent="1" vertex="1">
          <mxGeometry x="28" y="-610" width="24" height="20" as="geometry" />
        </mxCell>
        <mxCell id="8wgbRAuEodP1ZeBWU0db-14" value="" style="group" parent="1" vertex="1" connectable="0">
          <mxGeometry x="78" y="-620" width="50" height="60" as="geometry" />
        </mxCell>
        <mxCell id="8wgbRAuEodP1ZeBWU0db-12" value="" style="ellipse;whiteSpace=wrap;html=1;aspect=fixed;" parent="8wgbRAuEodP1ZeBWU0db-14" vertex="1">
          <mxGeometry x="20" width="20" height="20" as="geometry" />
        </mxCell>
        <mxCell id="8wgbRAuEodP1ZeBWU0db-13" value="" style="endArrow=none;html=1;rounded=0;exitX=0.25;exitY=0;exitDx=0;exitDy=0;" parent="8wgbRAuEodP1ZeBWU0db-14" source="8wgbRAuEodP1ZeBWU0db-18" edge="1">
          <mxGeometry width="50" height="50" relative="1" as="geometry">
            <mxPoint y="40" as="sourcePoint" />
            <mxPoint x="20" y="20" as="targetPoint" />
          </mxGeometry>
        </mxCell>
        <mxCell id="8wgbRAuEodP1ZeBWU0db-18" value="Buscador" style="text;html=1;align=center;verticalAlign=middle;whiteSpace=wrap;rounded=0;" parent="8wgbRAuEodP1ZeBWU0db-14" vertex="1">
          <mxGeometry x="-5" y="30" width="60" height="30" as="geometry" />
        </mxCell>
        <mxCell id="8wgbRAuEodP1ZeBWU0db-17" value="Inicio" style="text;html=1;align=center;verticalAlign=middle;whiteSpace=wrap;rounded=0;" parent="1" vertex="1">
          <mxGeometry x="10" y="-590" width="60" height="30" as="geometry" />
        </mxCell>
        <mxCell id="8wgbRAuEodP1ZeBWU0db-19" value="" style="ellipse;whiteSpace=wrap;html=1;aspect=fixed;" parent="1" vertex="1">
          <mxGeometry x="288" y="-615" width="30" height="30" as="geometry" />
        </mxCell>
        <mxCell id="8wgbRAuEodP1ZeBWU0db-20" value="Perfil" style="text;html=1;align=center;verticalAlign=middle;whiteSpace=wrap;rounded=0;" parent="1" vertex="1">
          <mxGeometry x="273" y="-590" width="60" height="30" as="geometry" />
        </mxCell>
        <mxCell id="8wgbRAuEodP1ZeBWU0db-21" value="" style="verticalLabelPosition=bottom;verticalAlign=top;html=1;shape=mxgraph.basic.star" parent="1" vertex="1">
          <mxGeometry x="225.5" y="-620" width="35" height="30" as="geometry" />
        </mxCell>
        <mxCell id="8wgbRAuEodP1ZeBWU0db-22" value="Favoritos" style="text;html=1;align=center;verticalAlign=middle;whiteSpace=wrap;rounded=0;" parent="1" vertex="1">
          <mxGeometry x="213" y="-590" width="60" height="30" as="geometry" />
        </mxCell>
        <mxCell id="8wgbRAuEodP1ZeBWU0db-23" value="" style="rhombus;whiteSpace=wrap;html=1;" parent="1" vertex="1">
          <mxGeometry x="152" y="-625" width="40" height="40" as="geometry" />
        </mxCell>
        <mxCell id="8wgbRAuEodP1ZeBWU0db-24" value="Reservas" style="text;html=1;align=center;verticalAlign=middle;whiteSpace=wrap;rounded=0;" parent="1" vertex="1">
          <mxGeometry x="142" y="-590" width="60" height="30" as="geometry" />
        </mxCell>
        <mxCell id="8wgbRAuEodP1ZeBWU0db-34" value="Mejores valorados &amp;gt;" style="text;html=1;align=center;verticalAlign=middle;whiteSpace=wrap;rounded=0;fontStyle=1" parent="1" vertex="1">
          <mxGeometry x="22" y="-880" width="120" height="30" as="geometry" />
        </mxCell>
        <mxCell id="8wgbRAuEodP1ZeBWU0db-39" value="Restaurante 1" style="rounded=1;whiteSpace=wrap;html=1;" parent="1" vertex="1">
          <mxGeometry x="22" y="-970" width="86" height="80" as="geometry" />
        </mxCell>
        <mxCell id="8wgbRAuEodP1ZeBWU0db-42" value="Restaurante 2" style="rounded=1;whiteSpace=wrap;html=1;" parent="1" vertex="1">
          <mxGeometry x="127" y="-970" width="86" height="80" as="geometry" />
        </mxCell>
        <mxCell id="8wgbRAuEodP1ZeBWU0db-43" value="Restaurante 3" style="rounded=1;whiteSpace=wrap;html=1;" parent="1" vertex="1">
          <mxGeometry x="232" y="-970" width="86" height="80" as="geometry" />
        </mxCell>
        <mxCell id="8wgbRAuEodP1ZeBWU0db-44" value="Restaurante 1" style="rounded=1;whiteSpace=wrap;html=1;" parent="1" vertex="1">
          <mxGeometry x="28" y="-850" width="86" height="80" as="geometry" />
        </mxCell>
        <mxCell id="8wgbRAuEodP1ZeBWU0db-45" value="Restaurante 2" style="rounded=1;whiteSpace=wrap;html=1;" parent="1" vertex="1">
          <mxGeometry x="132" y="-850" width="86" height="80" as="geometry" />
        </mxCell>
        <mxCell id="8wgbRAuEodP1ZeBWU0db-46" value="Restaurante 3" style="rounded=1;whiteSpace=wrap;html=1;" parent="1" vertex="1">
          <mxGeometry x="232" y="-850" width="86" height="80" as="geometry" />
        </mxCell>
        <mxCell id="8wgbRAuEodP1ZeBWU0db-47" value="" style="shape=umlActor;verticalLabelPosition=bottom;verticalAlign=top;html=1;outlineConnect=0;" parent="1" vertex="1">
          <mxGeometry x="298" y="-610" width="10" height="20" as="geometry" />
        </mxCell>
        <mxCell id="_0E37nuYVE6PRh97Ylh9-1" value="" style="rounded=0;whiteSpace=wrap;html=1;fillColor=#ffcc99;strokeColor=#36393d;" parent="1" vertex="1">
          <mxGeometry x="360" y="-1150" width="326" height="580" as="geometry" />
        </mxCell>
        <mxCell id="_0E37nuYVE6PRh97Ylh9-4" value="&lt;h1&gt;Buscador&lt;/h1&gt;" style="text;html=1;align=left;verticalAlign=middle;whiteSpace=wrap;rounded=0;fontSize=11;" parent="1" vertex="1">
          <mxGeometry x="370" y="-1140" width="130" height="60" as="geometry" />
        </mxCell>
        <mxCell id="_0E37nuYVE6PRh97Ylh9-5" value="Tipo de comida, nombre de restaurante..." style="rounded=1;whiteSpace=wrap;html=1;align=left;" parent="1" vertex="1">
          <mxGeometry x="370" y="-1090" width="260" height="20" as="geometry" />
        </mxCell>
        <mxCell id="WBTW-E1N9VvRYJTwgJ_y-1" value="Búsquedas recientes" style="text;html=1;align=center;verticalAlign=middle;whiteSpace=wrap;rounded=0;" parent="1" vertex="1">
          <mxGeometry x="360" y="-1060" width="130" height="30" as="geometry" />
        </mxCell>
        <mxCell id="WBTW-E1N9VvRYJTwgJ_y-2" value="-Búsqueda 1" style="text;html=1;align=center;verticalAlign=middle;whiteSpace=wrap;rounded=0;" parent="1" vertex="1">
          <mxGeometry x="370" y="-1040" width="100" height="30" as="geometry" />
        </mxCell>
        <mxCell id="WBTW-E1N9VvRYJTwgJ_y-3" value="-Búsqueda 2" style="text;html=1;align=center;verticalAlign=middle;whiteSpace=wrap;rounded=0;" parent="1" vertex="1">
          <mxGeometry x="370" y="-1010" width="100" height="30" as="geometry" />
        </mxCell>
        <mxCell id="WBTW-E1N9VvRYJTwgJ_y-4" value="-Búsqueda 3" style="text;html=1;align=center;verticalAlign=middle;whiteSpace=wrap;rounded=0;" parent="1" vertex="1">
          <mxGeometry x="370" y="-980" width="100" height="30" as="geometry" />
        </mxCell>
        <mxCell id="WBTW-E1N9VvRYJTwgJ_y-8" value="&lt;font style=&quot;font-size: 9px;&quot;&gt;Icono&lt;br&gt;&lt;br&gt;Hambuerguesas&lt;/font&gt;" style="ellipse;whiteSpace=wrap;html=1;aspect=fixed;" parent="1" vertex="1">
          <mxGeometry x="370" y="-940" width="70" height="70" as="geometry" />
        </mxCell>
        <mxCell id="WBTW-E1N9VvRYJTwgJ_y-10" value="&lt;font style=&quot;font-size: 9px;&quot;&gt;Icono&lt;br&gt;&lt;br&gt;Sushi&lt;/font&gt;" style="ellipse;whiteSpace=wrap;html=1;aspect=fixed;" parent="1" vertex="1">
          <mxGeometry x="450" y="-940" width="70" height="70" as="geometry" />
        </mxCell>
        <mxCell id="WBTW-E1N9VvRYJTwgJ_y-11" value="&lt;font style=&quot;font-size: 9px;&quot;&gt;Icono&lt;br&gt;&lt;br&gt;Economico&lt;/font&gt;" style="ellipse;whiteSpace=wrap;html=1;aspect=fixed;" parent="1" vertex="1">
          <mxGeometry x="530" y="-940" width="70" height="70" as="geometry" />
        </mxCell>
        <mxCell id="WBTW-E1N9VvRYJTwgJ_y-14" value="&lt;font style=&quot;font-size: 9px;&quot;&gt;Icono&lt;br&gt;&lt;br&gt;Cerca de mi&lt;/font&gt;" style="ellipse;whiteSpace=wrap;html=1;aspect=fixed;" parent="1" vertex="1">
          <mxGeometry x="610" y="-940" width="70" height="70" as="geometry" />
        </mxCell>
        <mxCell id="WBTW-E1N9VvRYJTwgJ_y-15" value="" style="rounded=0;whiteSpace=wrap;html=1;fillColor=#ffcc99;strokeColor=#36393d;" parent="1" vertex="1">
          <mxGeometry x="10" y="-550" width="326" height="580" as="geometry" />
        </mxCell>
        <mxCell id="WBTW-E1N9VvRYJTwgJ_y-16" value="&lt;h1&gt;Reservas&lt;/h1&gt;" style="text;html=1;align=left;verticalAlign=middle;whiteSpace=wrap;rounded=0;fontSize=11;" parent="1" vertex="1">
          <mxGeometry x="17" y="-540" width="130" height="60" as="geometry" />
        </mxCell>
        <mxCell id="VxZAaysNHX8DxDc98073-1" value="Restaurante 1&lt;br&gt;Fecha/Hora&lt;br&gt;Num. Personas&lt;div&gt;&lt;br&gt;&lt;/div&gt;" style="rounded=1;whiteSpace=wrap;html=1;" parent="1" vertex="1">
          <mxGeometry x="38" y="-460" width="88" height="80" as="geometry" />
        </mxCell>
        <mxCell id="VxZAaysNHX8DxDc98073-4" style="edgeStyle=orthogonalEdgeStyle;rounded=0;orthogonalLoop=1;jettySize=auto;html=1;exitX=0.5;exitY=1;exitDx=0;exitDy=0;" parent="1" edge="1">
          <mxGeometry relative="1" as="geometry">
            <mxPoint x="47" y="-350" as="sourcePoint" />
            <mxPoint x="47" y="-350" as="targetPoint" />
          </mxGeometry>
        </mxCell>
        <mxCell id="VxZAaysNHX8DxDc98073-5" value="Proximas Reservas" style="text;html=1;align=center;verticalAlign=middle;whiteSpace=wrap;rounded=0;fontStyle=1;fontSize=13;" parent="1" vertex="1">
          <mxGeometry x="17" y="-490" width="133" height="30" as="geometry" />
        </mxCell>
        <mxCell id="VxZAaysNHX8DxDc98073-6" value="Restaurante 1&lt;br&gt;Fecha/Hora&lt;br&gt;Num. Personas&lt;div&gt;Comentario/Valoracion&lt;/div&gt;" style="rounded=1;whiteSpace=wrap;html=1;" parent="1" vertex="1">
          <mxGeometry x="44" y="-240" width="88" height="80" as="geometry" />
        </mxCell>
        <mxCell id="VxZAaysNHX8DxDc98073-9" value="Historial Reservas" style="text;html=1;align=center;verticalAlign=middle;whiteSpace=wrap;rounded=0;fontStyle=1;fontSize=13;" parent="1" vertex="1">
          <mxGeometry x="23" y="-270" width="133" height="30" as="geometry" />
        </mxCell>
        <mxCell id="VxZAaysNHX8DxDc98073-10" value="" style="rounded=0;whiteSpace=wrap;html=1;fillColor=#ffcc99;strokeColor=#36393d;" parent="1" vertex="1">
          <mxGeometry x="360" y="-550" width="326" height="580" as="geometry" />
        </mxCell>
        <mxCell id="VxZAaysNHX8DxDc98073-11" value="&lt;h1&gt;Favoritos&lt;/h1&gt;" style="text;html=1;align=left;verticalAlign=middle;whiteSpace=wrap;rounded=0;fontSize=11;" parent="1" vertex="1">
          <mxGeometry x="370" y="-540" width="130" height="60" as="geometry" />
        </mxCell>
        <mxCell id="VxZAaysNHX8DxDc98073-12" value="Restaurante 1&lt;div&gt;Dirección&lt;/div&gt;&lt;div&gt;Precio Estimado&lt;/div&gt;" style="rounded=1;whiteSpace=wrap;html=1;" parent="1" vertex="1">
          <mxGeometry x="377" y="-480" width="86" height="80" as="geometry" />
        </mxCell>
        <mxCell id="_qyWqN_6OtS0Gr5z02nJ-1" value="" style="rounded=0;whiteSpace=wrap;html=1;fillColor=#ffcc99;strokeColor=#36393d;" parent="1" vertex="1">
          <mxGeometry x="9" y="70" width="326" height="580" as="geometry" />
        </mxCell>
        <mxCell id="_qyWqN_6OtS0Gr5z02nJ-2" value="&lt;h1&gt;Mi Perfil&lt;/h1&gt;" style="text;html=1;align=left;verticalAlign=middle;whiteSpace=wrap;rounded=0;fontSize=11;" parent="1" vertex="1">
          <mxGeometry x="22" y="70" width="130" height="60" as="geometry" />
        </mxCell>
        <mxCell id="_qyWqN_6OtS0Gr5z02nJ-3" value="" style="ellipse;whiteSpace=wrap;html=1;aspect=fixed;" parent="1" vertex="1">
          <mxGeometry x="132" y="140" width="80" height="80" as="geometry" />
        </mxCell>
        <mxCell id="_qyWqN_6OtS0Gr5z02nJ-4" value="Nombre" style="text;html=1;align=center;verticalAlign=middle;whiteSpace=wrap;rounded=0;" parent="1" vertex="1">
          <mxGeometry x="140" y="230" width="60" height="30" as="geometry" />
        </mxCell>
        <mxCell id="W-kx-mEXsFAefgPPikq7-1" value="Editar Perfil" style="rounded=1;whiteSpace=wrap;html=1;" parent="1" vertex="1">
          <mxGeometry x="129.5" y="310" width="87" height="20" as="geometry" />
        </mxCell>
        <mxCell id="W-kx-mEXsFAefgPPikq7-3" value="Cerrar sesión" style="rounded=1;whiteSpace=wrap;html=1;" parent="1" vertex="1">
          <mxGeometry x="131" y="350" width="88" height="30" as="geometry" />
        </mxCell>
      </root>
    </mxGraphModel>
  </diagram>
</mxfile>
